<mxfile host="app.diagrams.net" agent="Mozilla/5.0 (Macintosh; Intel Mac OS X 10_15_7) AppleWebKit/537.36 (KHTML, like Gecko) Chrome/127.0.0.0 Safari/537.36" version="24.8.0">
  <diagram name="第 1 页" id="Npei0FxkLXh6k7Ae7GEk">
    <mxGraphModel dx="1084" dy="919" grid="1" gridSize="10" guides="1" tooltips="1" connect="1" arrows="1" fold="1" page="1" pageScale="1" pageWidth="827" pageHeight="1169" math="0" shadow="0">
      <root>
        <mxCell id="0" />
        <mxCell id="1" parent="0" />
        <mxCell id="qCH9nPyGRMm2kxCuF-4w-1" value="开始" style="whiteSpace=wrap;strokeWidth=2;" vertex="1" parent="1">
          <mxGeometry x="167" y="20" width="92" height="49" as="geometry" />
        </mxCell>
        <mxCell id="qCH9nPyGRMm2kxCuF-4w-2" value="输入账号密码" style="whiteSpace=wrap;strokeWidth=2;" vertex="1" parent="1">
          <mxGeometry x="135" y="119" width="156" height="49" as="geometry" />
        </mxCell>
        <mxCell id="qCH9nPyGRMm2kxCuF-4w-3" value="验证账号密码" style="rhombus;strokeWidth=2;whiteSpace=wrap;" vertex="1" parent="1">
          <mxGeometry x="62" y="217" width="145" height="145" as="geometry" />
        </mxCell>
        <mxCell id="qCH9nPyGRMm2kxCuF-4w-4" value="跳转到用户首页" style="whiteSpace=wrap;strokeWidth=2;" vertex="1" parent="1">
          <mxGeometry x="20" y="434" width="172" height="49" as="geometry" />
        </mxCell>
        <mxCell id="qCH9nPyGRMm2kxCuF-4w-5" value="显示错误信息" style="whiteSpace=wrap;strokeWidth=2;" vertex="1" parent="1">
          <mxGeometry x="242" y="434" width="156" height="49" as="geometry" />
        </mxCell>
        <mxCell id="qCH9nPyGRMm2kxCuF-4w-6" value="结束" style="whiteSpace=wrap;strokeWidth=2;" vertex="1" parent="1">
          <mxGeometry x="60" y="533" width="92" height="49" as="geometry" />
        </mxCell>
        <mxCell id="qCH9nPyGRMm2kxCuF-4w-7" value="" style="curved=1;startArrow=none;endArrow=block;exitX=0.5;exitY=0.99;entryX=0.5;entryY=-0.01;rounded=0;" edge="1" parent="1" source="qCH9nPyGRMm2kxCuF-4w-1" target="qCH9nPyGRMm2kxCuF-4w-2">
          <mxGeometry relative="1" as="geometry">
            <Array as="points" />
          </mxGeometry>
        </mxCell>
        <mxCell id="qCH9nPyGRMm2kxCuF-4w-8" value="" style="curved=1;startArrow=none;endArrow=block;exitX=0.25;exitY=0.98;entryX=0.5;entryY=0;rounded=0;" edge="1" parent="1" source="qCH9nPyGRMm2kxCuF-4w-2" target="qCH9nPyGRMm2kxCuF-4w-3">
          <mxGeometry relative="1" as="geometry">
            <Array as="points">
              <mxPoint x="134" y="192" />
            </Array>
          </mxGeometry>
        </mxCell>
        <mxCell id="qCH9nPyGRMm2kxCuF-4w-9" value="成功" style="curved=1;startArrow=none;endArrow=block;exitX=0.37;exitY=1;entryX=0.5;entryY=0;rounded=0;" edge="1" parent="1" source="qCH9nPyGRMm2kxCuF-4w-3" target="qCH9nPyGRMm2kxCuF-4w-4">
          <mxGeometry relative="1" as="geometry">
            <Array as="points">
              <mxPoint x="106" y="398" />
            </Array>
          </mxGeometry>
        </mxCell>
        <mxCell id="qCH9nPyGRMm2kxCuF-4w-10" value="失败" style="curved=1;startArrow=none;endArrow=block;exitX=0.99;exitY=1;entryX=0.3;entryY=0;rounded=0;" edge="1" parent="1" source="qCH9nPyGRMm2kxCuF-4w-3" target="qCH9nPyGRMm2kxCuF-4w-5">
          <mxGeometry relative="1" as="geometry">
            <Array as="points">
              <mxPoint x="241" y="398" />
            </Array>
          </mxGeometry>
        </mxCell>
        <mxCell id="qCH9nPyGRMm2kxCuF-4w-11" value="" style="curved=1;startArrow=none;endArrow=block;exitX=0.55;exitY=0;entryX=0.9;entryY=0.98;rounded=0;" edge="1" parent="1" source="qCH9nPyGRMm2kxCuF-4w-5" target="qCH9nPyGRMm2kxCuF-4w-2">
          <mxGeometry relative="1" as="geometry">
            <Array as="points">
              <mxPoint x="339" y="398" />
              <mxPoint x="339" y="192" />
            </Array>
          </mxGeometry>
        </mxCell>
        <mxCell id="qCH9nPyGRMm2kxCuF-4w-12" value="" style="curved=1;startArrow=none;endArrow=block;exitX=0.5;exitY=0.99;entryX=0.5;entryY=-0.01;rounded=0;" edge="1" parent="1" source="qCH9nPyGRMm2kxCuF-4w-4" target="qCH9nPyGRMm2kxCuF-4w-6">
          <mxGeometry relative="1" as="geometry">
            <Array as="points" />
          </mxGeometry>
        </mxCell>
      </root>
    </mxGraphModel>
  </diagram>
</mxfile>
